# Blender v3.2.2 OBJ File: 'floor_mars.blend'
# www.blender.org
mtllib floor_mars.mtl
o Cube.001
v -45.402676 4.230418 45.402676
v -47.647038 -0.355386 47.647038
v -45.402676 4.230418 -45.402676
v -47.647038 -0.355386 -47.647038
v 45.402676 4.230418 45.402676
v 47.647038 -0.355386 47.647038
v 45.402676 4.230418 -45.402676
v 47.647038 -0.355386 -47.647038
v -47.647038 4.230418 -47.647038
v -47.647038 4.230418 47.647038
v 47.647038 4.230418 -47.647038
v 47.647038 4.230418 47.647038
v -45.402676 0.978214 -45.402676
v -45.402676 0.978214 45.402676
v 45.402676 0.978214 -45.402676
v 45.402676 0.978214 45.402676
v -46.444904 0.876420 46.444904
v 46.444904 1.240711 46.444904
v -46.444904 0.000000 -46.444904
v 46.444904 1.240711 -46.444904
v -46.444904 2.194183 -36.123814
v -46.444904 0.876420 -25.802725
v -46.444904 2.194183 -15.481634
v -46.444904 0.876420 -5.160544
v -46.444904 1.240711 5.160546
v -46.444904 3.070604 15.481634
v -46.444904 0.876420 25.802725
v -46.444904 3.070604 36.123814
v 46.444904 3.070604 36.123814
v 46.444904 0.876420 25.802725
v 46.444904 0.876420 15.481634
v 46.444904 2.194183 5.160544
v 46.444904 -0.364291 -5.160546
v 46.444904 3.434894 -15.481634
v 46.444904 3.070604 -25.802725
v 46.444904 0.876420 -36.123814
v -36.123814 1.829893 46.444904
v -25.802725 0.876420 46.444904
v -15.481634 -0.364291 46.444904
v -5.160544 1.829893 46.444904
v 5.160546 0.000000 46.444904
v 15.481634 3.434894 46.444904
v 25.802725 2.194183 46.444904
v 36.123814 2.194183 46.444904
v 36.123814 3.070604 -46.444904
v 25.802725 0.000000 -46.444904
v 15.481634 3.434894 -46.444904
v 5.160544 2.194183 -46.444904
v -5.160546 3.070604 -46.444904
v -15.481634 -0.364291 -46.444904
v -25.802725 3.434894 -46.444904
v -36.123814 0.000000 -46.444904
v 36.123814 2.194183 36.123814
v 25.802725 2.194183 36.123814
v 15.481634 2.194183 36.123814
v 5.160544 2.194183 36.123814
v -5.160546 0.000000 36.123814
v -15.481634 3.070604 36.123814
v -25.802725 1.240711 36.123814
v -36.123814 3.434894 36.123814
v 36.123814 2.194183 25.802725
v 25.802725 0.876420 25.802725
v 15.481634 -0.364291 25.802725
v 5.160544 0.000000 25.802725
v -5.160546 1.240711 25.802725
v -15.481634 0.876420 25.802725
v -25.802725 3.434894 25.802725
v -36.123814 2.194183 25.802725
v 36.123814 1.240711 15.481634
v 25.802725 3.434894 15.481634
v 15.481634 3.434894 15.481634
v 5.160544 0.876420 15.481634
v -5.160546 1.240711 15.481634
v -15.481634 2.194183 15.481634
v -25.802725 -0.364291 15.481634
v -36.123814 2.194183 15.481634
v 36.123814 0.000000 5.160544
v 25.802725 -0.364291 5.160544
v 15.481634 2.194183 5.160545
v 5.160544 3.070604 5.160545
v -5.160546 1.829893 5.160545
v -15.481634 3.070604 5.160545
v -25.802725 0.000000 5.160545
v -36.123814 3.070604 5.160546
v 36.123814 1.829893 -5.160546
v 25.802725 1.240711 -5.160546
v 15.481634 1.829893 -5.160545
v 5.160544 1.240711 -5.160545
v -5.160546 1.829893 -5.160545
v -15.481634 3.434894 -5.160545
v -25.802725 0.000000 -5.160545
v -36.123814 -0.364291 -5.160544
v 36.123814 3.434894 -15.481634
v 25.802725 3.434894 -15.481634
v 15.481634 2.194183 -15.481634
v 5.160544 1.829893 -15.481634
v -5.160546 2.194183 -15.481634
v -15.481634 -0.364291 -15.481634
v -25.802725 0.000000 -15.481634
v -36.123814 1.240711 -15.481634
v 36.123814 0.876420 -25.802725
v 25.802725 -0.364291 -25.802725
v 15.481634 0.876420 -25.802725
v 5.160544 -0.364291 -25.802725
v -5.160546 0.876420 -25.802725
v -15.481634 1.829893 -25.802725
v -25.802725 0.876420 -25.802725
v -36.123814 0.876420 -25.802725
v 36.123814 -0.364291 -36.123814
v 25.802725 3.070604 -36.123814
v 15.481634 -0.364291 -36.123814
v 5.160544 1.829893 -36.123814
v -5.160546 1.829893 -36.123814
v -15.481634 3.070604 -36.123814
v -25.802725 1.240711 -36.123814
v -36.123814 0.000000 -36.123814
vt 0.061576 0.002625
vt 0.061576 0.084738
vt 0.117800 0.084312
vt 0.117800 0.002200
vt 0.061576 0.084913
vt 0.061576 0.002827
vt 0.005433 0.002200
vt 0.005433 0.084285
vt 0.186019 0.641490
vt 0.186019 0.852361
vt 0.210184 0.852623
vt 0.210184 0.641752
vt 0.061577 0.086228
vt 0.061577 0.168275
vt 0.117038 0.166785
vt 0.117038 0.084738
vt 0.173334 0.166917
vt 0.173334 0.084770
vt 0.117038 0.084738
vt 0.117038 0.166885
vt 0.788669 -0.043493
vt 0.605949 -0.043598
vt 0.605949 0.154837
vt 0.788669 0.154942
vt 0.118363 0.221888
vt 0.118363 0.168243
vt 0.117038 0.166918
vt 0.172008 0.168243
vt 0.173334 0.166918
vt 0.172008 0.221888
vt 0.173334 0.223214
vt 0.117038 0.223214
vt 0.174097 0.002200
vt 0.117800 0.058496
vt 0.174097 0.058496
vt 0.031456 0.441166
vt 0.211466 0.436330
vt 0.211466 0.238137
vt 0.031456 0.242973
vt 0.603349 0.437273
vt 0.785835 0.435892
vt 0.785835 0.237540
vt 0.603349 0.238922
vt 0.953355 0.517455
vt 0.931838 0.618370
vt 0.953355 0.730017
vt 0.643758 0.497465
vt 0.643758 0.437273
vt 0.624259 0.490316
vt 0.697189 0.831072
vt 0.717913 0.892286
vt 0.717913 0.755369
vt 0.286190 0.848398
vt 0.309561 0.873821
vt 0.309561 0.736903
vt 0.737249 0.618548
vt 0.758834 0.517648
vt 0.738122 0.517552
vt 0.673829 0.758720
vt 0.697189 0.736573
vt 0.697189 0.601308
vt 0.084232 0.778407
vt 0.104934 0.666755
vt 0.084232 0.641490
vt 0.063543 0.775370
vt 0.309561 0.817199
vt 0.332119 0.873821
vt 0.332119 0.736903
vt 0.649162 0.848067
vt 0.668967 0.853234
vt 0.668967 0.766912
vt 0.645529 0.787091
vt 0.780146 0.814091
vt 0.800968 0.775101
vt 0.780184 0.752877
vt 0.868836 0.453198
vt 0.868871 0.374457
vt 0.848183 0.371420
vt 0.848148 0.450160
vt 0.929509 0.096477
vt 0.950597 0.035035
vt 0.929884 0.035195
vt 0.879752 0.846514
vt 0.903918 0.846514
vt 0.885617 0.710825
vt 0.817592 0.596196
vt 0.838337 0.733116
vt 0.838328 0.520496
vt 0.572134 0.846308
vt 0.572134 0.767448
vt 0.548256 0.771165
vt 0.548256 0.850025
vt 0.343879 0.724170
vt 0.372719 0.740782
vt 0.344347 0.662283
vt 0.333634 0.754686
vt 0.353177 0.747734
vt 0.451579 0.841357
vt 0.411596 0.770564
vt 0.425536 0.825408
vt 0.451579 0.759722
vt 0.415748 0.709210
vt 0.627278 0.652912
vt 0.615107 0.589206
vt 0.603350 0.671842
vt 0.656148 0.595257
vt 0.647231 0.517455
vt 0.653308 0.755694
vt 0.644391 0.677893
vt 0.688272 0.523506
vt 0.514055 0.787863
vt 0.485984 0.806230
vt 0.490596 0.867989
vt 0.306557 0.578644
vt 0.286190 0.576619
vt 0.290110 0.736903
vt 0.313267 0.716904
vt 0.640420 0.219421
vt 0.640420 0.184888
vt 0.625341 0.205581
vt 0.931838 0.517455
vt 0.904465 0.594049
vt 0.909735 0.751219
vt 0.357467 0.561281
vt 0.333634 0.557284
vt 0.335719 0.582804
vt 0.441025 0.175882
vt 0.422265 0.185470
vt 0.453520 0.212813
vt 0.183604 0.705523
vt 0.186019 0.641490
vt 0.171261 0.668293
vt 0.717409 0.517455
vt 0.716770 0.654373
vt 0.683828 0.864995
vt 0.683828 0.761745
vt 0.668967 0.839178
vt 0.063543 0.852841
vt 0.063543 0.661302
vt 0.040644 0.641490
vt 0.806624 0.450164
vt 0.827401 0.259775
vt 0.806633 0.259772
vt 0.849124 -0.043598
vt 0.828376 0.009874
vt 0.849072 0.035143
vt 0.869892 -0.043594
vt 0.377924 0.561921
vt 0.356177 0.522079
vt 0.514055 0.755411
vt 0.518892 0.820089
vt 0.548256 0.709210
vt 0.146418 0.651855
vt 0.736465 0.733255
vt 0.715897 0.755369
vt 0.624840 0.873400
vt 0.645529 0.876435
vt 0.645529 0.761745
vt 0.333634 0.527682
vt 0.785835 0.396685
vt 0.785856 0.237540
vt 0.400468 0.588080
vt 0.376908 0.640760
vt 0.485984 0.841875
vt 0.451579 0.787415
vt 0.460181 0.825540
vt 0.485984 0.755711
vt 0.452120 0.709210
vt 0.871796 0.240426
vt 0.903749 0.315479
vt 0.892336 0.237540
vt 0.868871 0.375971
vt 0.903749 0.473048
vt 0.780146 0.752877
vt 0.758834 0.836364
vt 0.780146 0.889796
vt 0.355160 0.662283
vt 0.798528 -0.043598
vt 0.788669 0.037141
vt 0.828376 0.189304
vt 0.501651 0.148157
vt 0.479872 0.173671
vt 0.501651 0.231646
vt 0.882581 0.596274
vt 0.859025 0.571023
vt 0.862115 0.596440
vt 0.788165 0.517455
vt 0.817592 0.593247
vt 0.811654 0.536972
vt 0.777574 0.594942
vt 0.817592 0.750376
vt 0.758834 0.622765
vt 0.797030 0.752877
vt 0.931838 0.866934
vt 0.952283 0.810501
vt 0.932616 0.730017
vt 0.603349 0.515184
vt 0.624259 0.515184
vt 0.612856 0.437273
vt 0.254826 0.548519
vt 0.226252 0.529126
vt 0.262138 0.684138
vt 0.261961 0.818906
vt 0.261961 0.702377
vt 0.237790 0.684138
vt 0.514055 0.709210
vt 0.485984 0.727576
vt 0.125676 0.641493
vt 0.146418 0.778414
vt 0.146418 0.641495
vt 0.105345 0.724958
vt 0.125505 0.800629
vt 0.904465 0.520510
vt 0.880493 0.517455
vt 0.837968 0.837157
vt 0.817592 0.758448
vt 0.818137 0.895366
vt 0.286190 0.581330
vt 0.286190 0.681796
vt 0.755457 0.893852
vt 0.755457 0.755369
vt 0.738243 0.868760
vt 0.882145 0.167505
vt 0.907012 0.144989
vt 0.907012 -0.043598
vt 0.479872 0.231188
vt 0.479872 0.148157
vt 0.459080 0.150378
vt 0.453520 0.211889
vt 0.411121 0.800761
vt 0.411121 0.662283
vt 0.390640 0.665382
vt 0.603349 0.237540
vt 0.625341 0.237540
vt 0.613786 0.159623
vt 0.213680 0.443204
vt 0.031456 0.639453
vt 0.213680 0.641490
vt 0.904465 0.885035
vt 0.926237 0.888137
vt 0.926237 0.751219
vt 0.907012 0.090342
vt 0.929509 0.191111
vt 0.929509 -0.043598
vt 0.951650 0.165980
vt 0.972338 0.169022
vt 0.972338 -0.043598
vt 0.951650 0.009669
vt 0.929929 -0.043598
vt 0.816850 0.855954
vt 0.816850 0.752877
vt 0.800968 0.829999
vt 0.911186 0.471020
vt 0.935790 0.448217
vt 0.935790 0.237540
vt 0.859025 0.736157
vt 0.859025 0.545765
vt 0.827401 0.349193
vt 0.603350 0.818372
vt 0.624840 0.876455
vt 0.624840 0.761745
vt 0.717913 0.838834
vt 0.738243 0.892288
vt 0.738243 0.755369
vt 0.649162 0.761745
vt 0.524530 0.209587
vt 0.545650 0.231646
vt 0.545650 0.148157
vt 0.837968 0.761493
vt 0.857825 0.895293
vt 0.857825 0.736157
vt 0.758834 0.752421
vt 0.694349 0.761745
vt 0.868871 0.237540
vt 0.372719 0.800804
vt 0.581463 0.194596
vt 0.565805 0.208157
vt 0.581463 0.228142
vt 0.800968 0.889791
vt 0.552797 0.709210
vt 0.951650 0.171950
vt 0.817640 0.517455
vt 0.935790 0.374376
vt 0.957049 0.450102
vt 0.957049 0.237540
vt 0.524530 0.227003
vt 0.524530 0.148157
vt 0.501651 0.201136
vt 0.879753 0.869970
vt 0.879753 0.710825
vt 0.859025 0.791228
vt 0.646109 0.184888
vt 0.646109 0.159623
vt 0.625341 0.159678
vt 0.931838 0.727817
vt 0.414195 0.161528
vt 0.697189 0.593003
vt 0.031456 0.744115
vt 0.333634 0.718929
vt 0.827401 0.472395
vt 0.548256 0.787520
vt 0.453520 0.148157
vt 0.186019 0.805959
vt 0.310127 0.522079
vt 0.400468 0.526716
vt 0.592863 0.868354
vt 0.592863 0.709209
vt 0.572134 0.784911
vt 0.880284 0.453909
vt 0.565805 0.148157
vt 0.545650 0.229128
vt 0.565805 0.234136
vt 0.828376 0.028802
vt 0.222688 0.612454
vt 0.602231 0.219862
vt 0.602231 0.194596
vt 0.581463 0.194651
vt 0.952283 0.889271
vt 0.222688 0.712565
vt 0.904465 0.710825
vt 0.104934 0.641490
vt 0.593669 0.166732
vt 0.584381 0.185308
vt 0.602957 0.194596
vt 0.837968 0.736157
vt 0.270224 0.522079
vt 0.869892 0.089812
vt 0.104934 0.803672
vt 0.372719 0.693739
vt 0.282700 0.896758
vt 0.282700 0.684138
vt 0.261961 0.759836
vt 0.575093 0.157445
vt 0.602957 0.148157
vt 0.655106 0.184888
vt 0.640420 0.199574
vt 0.655106 0.214259
vt 0.869892 0.169026
vt 0.953355 0.618494
vt 0.973544 0.730044
vt 0.973544 0.517455
vt 0.903749 0.335622
vt 0.565805 0.176020
vn 0.0000 0.0000 -1.0000
vn 0.0000 0.0000 1.0000
vn 0.3011 0.9048 0.3011
vn 1.0000 0.0000 0.0000
vn -1.0000 0.0000 0.0000
vn 0.0000 1.0000 0.0000
vn 0.0000 -1.0000 0.0000
vn 0.1659 0.9357 0.3114
vn -0.0846 0.9964 0.0000
vn -0.2065 0.9714 -0.1168
vn 0.2049 0.9638 0.1709
vn 0.0000 0.9881 0.1537
vn -0.2021 0.9506 -0.2356
vn -0.2043 0.9608 -0.1873
vn 0.2063 0.9706 0.1239
vn 0.1265 0.9909 -0.0458
vn -0.0919 0.9951 0.0351
vn -0.1185 0.9859 -0.1185
vn 0.0000 0.9958 0.0920
vn 0.2036 0.9577 0.2036
vn -0.3137 0.9427 -0.1133
vn 0.1185 0.9859 0.1185
vn 0.0913 0.9878 -0.1261
vn 0.0000 0.9994 -0.0353
vn 0.0351 0.9958 0.0846
vn 0.0900 0.9742 0.2071
vn 0.0350 0.9913 -0.1266
vn -0.1168 0.9714 -0.2065
vn -0.1184 0.9850 -0.1258
vn -0.1121 0.9325 -0.3433
vn 0.0913 0.9878 0.1261
vn 0.2406 0.9705 0.0171
vn 0.0353 0.9994 0.0000
vn -0.2266 0.9140 -0.3365
vn 0.0353 0.9988 0.0353
vn -0.0569 0.9968 0.0569
vn 0.0570 0.9978 0.0352
vn -0.0558 0.9766 0.2076
vn 0.1193 0.9922 -0.0350
vn -0.0335 0.9483 -0.3156
vn -0.2852 0.9585 0.0000
vn -0.1192 0.9920 -0.0421
vn 0.0570 0.9984 0.0000
vn 0.0833 0.9812 -0.1740
vn 0.0570 0.9978 -0.0352
vn -0.0349 0.9875 0.1536
vn -0.1720 0.9700 -0.1720
vn 0.2842 0.9553 0.0811
vn -0.2405 0.9701 0.0342
vn 0.1189 0.9893 0.0840
vn 0.0352 0.9978 0.0570
vn 0.0828 0.9748 0.2072
vn 0.0000 0.9929 -0.1194
vn 0.1956 0.9203 -0.3388
vn 0.1536 0.9875 0.0349
vn -0.1121 0.9325 0.3433
vn 0.2021 0.9506 0.2356
vn -0.1239 0.9706 -0.2063
vn 0.2356 0.9506 0.2021
vn -0.0345 0.9776 -0.2078
vn 0.1180 0.9812 0.1526
vn 0.0000 0.9781 -0.2079
vn -0.1159 0.9641 -0.2390
vn 0.1187 0.9877 0.1013
vn -0.0900 0.9742 0.2071
vn 0.2056 0.9670 0.1504
vn -0.1745 0.9840 0.0347
vn 0.2717 0.9131 0.3039
vn -0.1259 0.9861 -0.1085
vn 0.0000 0.9781 0.2079
vn 0.1185 0.9859 -0.1185
vn 0.2036 0.9577 -0.2036
vn 0.3388 0.9203 0.1956
vn -0.3011 0.9048 -0.3011
vn 0.0840 0.9893 0.1189
vn -0.1193 0.9922 0.0350
vn 0.2981 0.8958 0.3297
vn -0.2742 0.9217 -0.2742
vn 0.0906 0.9806 0.1739
vn -0.0828 0.9748 -0.2072
vn 0.0350 0.9913 0.1266
vn 0.1956 0.9203 0.3388
vn -0.2036 0.9577 -0.2036
vn 0.0000 0.9964 -0.0846
vn 0.0000 0.9994 0.0353
vn -0.1734 0.9778 0.1175
vn 0.0916 0.9916 0.0916
vn 0.1168 0.9714 0.2065
vn 0.1133 0.9427 0.3137
vn -0.2388 0.9633 -0.1230
vn 0.1168 0.9714 -0.2065
vn -0.0350 0.9913 -0.1266
vn 0.1121 0.9325 -0.3433
vn 0.0000 0.9706 -0.2406
vn -0.0353 0.9994 0.0000
vn -0.2981 0.8958 -0.3297
vn 0.0569 0.9968 0.0569
vn -0.0353 0.9988 0.0353
vn -0.1168 0.9714 0.2065
vn -0.1659 0.9357 -0.3114
vn 0.2852 0.9585 0.0000
vn -0.3156 0.9483 0.0335
vn 0.1194 0.9929 0.0000
vn -0.1175 0.9778 -0.1734
vn -0.0570 0.9978 -0.0352
vn 0.2379 0.9598 0.1492
vn -0.0561 0.9831 0.1743
vn 0.0843 0.9929 0.0843
vn -0.2842 0.9553 0.0811
vn 0.0918 0.9942 0.0568
vn -0.2390 0.9641 -0.1159
vn 0.2266 0.9140 -0.3365
vn -0.0350 0.9922 -0.1193
vn -0.1266 0.9919 0.0000
vn 0.2388 0.9633 0.1230
vn -0.2266 0.9140 0.3365
vn 0.0000 0.9706 0.2406
vn -0.1709 0.9638 -0.2049
vn 0.2833 0.9522 0.1145
vn 0.0342 0.9701 -0.2405
vn 0.0000 0.9919 -0.1266
vn 0.0919 0.9951 0.0351
vn -0.2049 0.9638 -0.1709
vn 0.1709 0.9638 0.2049
vn -0.3095 0.9301 0.1977
vn -0.3039 0.9131 -0.2717
usemtl mars
s off
f 4/1/1 9/2/1 11/3/1 8/4/1
f 6/5/2 12/6/2 10/7/2 2/8/2
f 110/9/3 102/10/3 109/11/3 45/12/3
f 8/13/4 11/14/4 12/15/4 6/16/4
f 2/17/5 10/18/5 9/19/5 4/20/5
f 5/21/5 7/22/5 15/23/5 16/24/5
f 1/25/6 3/26/6 9/27/6
f 3/26/6 7/28/6 11/29/6
f 7/28/6 5/30/6 12/31/6
f 5/30/6 1/25/6 10/32/6
f 4/33/7 8/4/7 6/34/7 2/35/7
f 3/36/4 1/37/4 14/38/4 13/39/4
f 1/40/1 5/41/1 16/42/1 14/43/1
f 109/44/8 20/45/8 45/46/8
f 44/47/9 29/48/9 53/49/9
f 69/50/10 32/51/10 77/52/10
f 77/53/11 33/54/11 85/55/11
f 85/56/12 34/57/12 93/58/12
f 93/59/13 35/60/13 101/61/13
f 57/62/14 40/63/14 56/64/14 64/65/14
f 22/66/15 116/67/15 21/68/15
f 61/69/16 53/70/16 30/71/16 69/72/16
f 106/73/17 115/74/17 107/75/17
f 102/76/18 101/77/18 36/78/18 109/79/18
f 105/80/19 112/81/19 113/82/19
f 104/83/20 111/84/20 112/85/20
f 103/86/21 110/87/21 111/88/21
f 114/89/22 106/90/22 113/91/22 49/92/22
f 100/93/23 22/94/23 23/95/23
f 100/93/24 107/96/24 108/97/24
f 98/98/25 107/99/25 99/100/25
f 98/98/26 105/101/26 106/102/26
f 96/103/27 105/104/27 97/105/27
f 96/103/28 103/106/28 104/107/28
f 94/108/29 103/106/29 95/109/29
f 94/108/30 101/61/30 102/110/30
f 24/111/31 100/112/31 23/113/31
f 76/114/32 68/115/32 75/116/32 83/117/32
f 91/118/33 98/119/33 99/120/33
f 90/121/34 97/122/34 98/123/34
f 89/124/35 96/125/35 97/126/35
f 87/127/36 96/128/36 88/129/36
f 86/130/37 95/131/37 87/132/37
f 85/56/38 94/133/38 86/134/38
f 25/135/39 92/136/39 24/137/39
f 84/138/40 91/139/40 92/140/40
f 82/141/41 91/142/41 83/143/41
f 116/144/42 108/145/42 115/146/42 52/147/42
f 81/148/43 88/149/43 89/124/43
f 79/150/44 88/151/44 80/152/44
f 79/153/45 86/130/45 87/132/45
f 77/154/46 86/134/46 78/155/46
f 26/156/47 84/157/47 25/158/47
f 76/114/48 83/117/48 84/159/48
f 74/160/49 83/143/49 75/161/49
f 74/162/50 81/148/50 82/163/50
f 72/164/51 81/165/51 73/166/51
f 72/164/52 79/167/52 80/168/52
f 70/169/53 79/170/53 71/171/53
f 69/172/54 78/173/54 70/169/54
f 27/174/52 76/175/52 26/176/52
f 90/177/55 82/163/55 89/124/55 97/126/55
f 67/178/34 74/179/34 75/180/34
f 66/181/31 73/182/31 74/183/31
f 65/184/33 72/185/33 73/186/33
f 63/187/25 72/188/25 64/189/25
f 62/190/56 71/191/56 63/187/56
f 62/190/57 69/192/57 70/193/57
f 28/194/58 68/195/58 27/196/58
f 60/197/18 67/198/18 68/199/18
f 59/200/59 66/201/59 67/202/59
f 58/203/60 65/204/60 66/205/60
f 24/111/61 92/206/61 99/207/61 100/112/61
f 55/208/62 64/209/62 56/210/62
f 55/208/63 62/211/63 63/212/63
f 65/184/64 57/213/64 64/214/64 72/185/64
f 37/215/65 28/216/65 17/217/65
f 37/218/66 59/200/66 60/219/66
f 38/220/67 58/221/67 59/222/67
f 39/223/68 57/224/68 58/225/68
f 62/226/69 54/227/69 61/228/69 69/229/69
f 41/230/70 55/231/70 56/232/70
f 43/233/71 55/234/71 42/235/71
f 7/236/2 3/36/2 13/237/2 15/238/2
f 116/239/72 19/240/72 21/241/72
f 115/242/73 50/243/73 51/244/73
f 114/245/74 49/246/74 50/247/74
f 113/82/75 48/248/75 49/249/75
f 112/250/76 47/251/76 48/252/76
f 111/253/77 46/254/77 47/255/77
f 110/87/78 45/256/78 46/257/78
f 1/25/6 9/27/6 10/32/6
f 3/26/6 11/29/6 9/27/6
f 7/28/6 12/31/6 11/29/6
f 5/30/6 10/32/6 12/31/6
f 109/79/76 36/78/76 20/258/76
f 44/259/79 18/260/79 29/261/79
f 53/262/80 29/263/80 30/264/80
f 30/71/33 31/265/33 69/72/33
f 69/266/81 31/267/81 32/268/81
f 77/269/13 32/270/13 33/271/13
f 85/56/82 33/272/82 34/57/82
f 93/59/24 34/273/24 35/60/24
f 101/77/83 35/274/83 36/78/83
f 22/94/84 108/97/84 116/275/84
f 108/276/85 107/277/85 115/278/85
f 106/73/86 114/279/86 115/74/86
f 106/90/87 105/280/87 113/91/87
f 105/80/88 104/281/88 112/81/88
f 104/282/18 103/86/18 111/88/18
f 103/283/89 102/284/89 110/285/89
f 100/93/24 108/97/24 22/94/24
f 100/286/50 99/287/50 107/288/50
f 98/98/65 106/102/65 107/99/65
f 98/289/90 97/290/90 105/291/90
f 96/103/91 104/107/91 105/104/91
f 96/103/92 95/109/92 103/106/92
f 94/108/93 102/110/93 103/106/93
f 94/108/94 93/59/94 101/61/94
f 92/292/95 91/293/95 99/294/95
f 91/295/96 90/121/96 98/123/96
f 89/124/97 88/149/97 96/125/97
f 87/127/98 95/296/98 96/128/98
f 86/134/99 94/133/99 95/297/99
f 85/56/12 93/58/12 94/133/12
f 25/298/100 84/138/100 92/140/100
f 84/159/101 83/117/101 91/299/101
f 82/141/102 90/300/102 91/142/102
f 82/163/103 81/148/103 89/124/103
f 81/301/104 80/152/104 88/151/104
f 79/302/105 87/127/105 88/129/105
f 79/153/106 78/303/106 86/130/106
f 77/154/107 85/56/107 86/134/107
f 26/304/108 76/114/108 84/159/108
f 74/160/109 82/141/109 83/143/109
f 74/162/110 73/305/110 81/148/110
f 72/164/99 80/168/99 81/165/99
f 72/306/111 71/307/111 79/308/111
f 70/169/112 78/173/112 79/170/112
f 69/172/113 77/309/113 78/173/113
f 27/310/114 68/311/114 76/312/114
f 68/313/30 67/178/30 75/180/30
f 67/202/115 66/201/115 74/314/115
f 66/315/95 65/316/95 73/317/95
f 63/187/116 71/191/116 72/188/116
f 62/190/117 70/193/117 71/191/117
f 28/194/113 60/318/113 68/195/113
f 60/219/20 59/200/20 67/202/20
f 59/319/118 58/203/118 66/205/118
f 58/320/119 57/213/119 65/184/119
f 55/208/120 63/212/120 64/209/120
f 55/208/121 54/321/121 62/211/121
f 54/322/6 53/323/6 61/324/6
f 37/215/46 60/325/46 28/216/46
f 37/218/122 38/326/122 59/200/122
f 38/327/89 39/223/89 58/225/89
f 39/328/123 40/63/123 57/62/123
f 40/329/124 41/230/124 56/232/124
f 41/330/21 42/331/21 55/332/21
f 43/333/6 54/322/6 55/334/6
f 116/335/6 52/336/6 19/337/6
f 115/146/125 51/338/125 52/147/125
f 115/339/100 114/340/100 50/341/100
f 113/82/85 112/81/85 48/248/85
f 112/342/82 111/253/82 47/255/82
f 111/88/126 110/87/126 46/257/126
f 54/322/6 43/333/6 44/343/6 53/323/6
